<?xml version="1.0" encoding="UTF-8"?>
<svg version="1.1" xmlns="http://www.w3.org/2000/svg" width="154" height="207">
<path d="M0 0 C50.82 0 101.64 0 154 0 C154 68.31 154 136.62 154 207 C103.18 207 52.36 207 0 207 C0 138.69 0 70.38 0 0 Z " fill="#FDFEFE" transform="translate(0,0)"/>
<path d="M0 0 C2.13720703 0.82275391 2.13720703 0.82275391 4.2578125 1.9765625 C5.43670044 2.60812256 5.43670044 2.60812256 6.6394043 3.25244141 C7.45965088 3.70538574 8.27989746 4.15833008 9.125 4.625 C9.96651611 5.0792334 10.80803223 5.5334668 11.67504883 6.00146484 C14.12202235 7.32480167 16.56148139 8.66116496 19 10 C20.22996363 10.66759812 21.46036758 11.3343863 22.69140625 12 C25.13283227 13.32416326 27.56929859 14.65628641 30 16 C29.67 17.32 29.34 18.64 29 20 C27.02 19.67 25.04 19.34 23 19 C23 32.53 23 46.06 23 60 C38.84 60 54.68 60 71 60 C71.495 62.475 71.495 62.475 72 65 C70.03571633 66.96428367 67.01702837 66.12023917 64.40252686 66.12442017 C63.4523468 66.12082489 62.50216675 66.11722961 61.52319336 66.11352539 C60.03067802 66.11374443 60.03067802 66.11374443 58.50801086 66.1139679 C55.20193338 66.11326831 51.89591146 66.10547379 48.58984375 66.09765625 C46.30440807 66.09579223 44.01897199 66.09436825 41.73353577 66.09336853 C35.70501613 66.08954207 29.67652041 66.0797107 23.64801025 66.06866455 C17.50167159 66.05845317 11.35532907 66.0538715 5.20898438 66.04882812 C-6.86068762 66.03808854 -18.93034182 66.0210106 -31 66 C-31.495 63.525 -31.495 63.525 -32 61 C-29.525 60.505 -29.525 60.505 -27 60 C-27 46.8 -27 33.6 -27 20 C-28.98 20 -30.96 20 -33 20 C-32.50728775 15.41218472 -32.50728775 15.41218472 -30.26928711 13.59375 C-29.5294458 13.2328125 -28.78960449 12.871875 -28.02734375 12.5 C-27.20943359 12.0875 -26.39152344 11.675 -25.54882812 11.25 C-24.2562207 10.63125 -24.2562207 10.63125 -22.9375 10 C-21.25757814 9.16976835 -19.57917541 8.33645539 -17.90234375 7.5 C-17.07847168 7.09394531 -16.25459961 6.68789063 -15.40576172 6.26953125 C-12.41622608 4.69193988 -9.65069322 2.8631457 -6.88891602 0.91796875 C-4.40841614 -0.28749584 -2.73288055 -0.28052486 0 0 Z " fill="#1F364A" transform="translate(51,45)"/>
<path d="M0 0 C4.23242724 1.70782152 8.10552303 3.85257112 12.07421875 6.09765625 C14.57970663 7.53842508 14.57970663 7.53842508 17.5625 8.4375 C17.5625 23.2875 17.5625 38.1375 17.5625 53.4375 C14.9225 53.4375 12.2825 53.4375 9.5625 53.4375 C9.50191406 52.22191406 9.44132812 51.00632813 9.37890625 49.75390625 C9.29451668 48.16925772 9.2098679 46.58462298 9.125 45 C9.08568359 44.19755859 9.04636719 43.39511719 9.00585938 42.56835938 C9.1570704 38.68510439 9.1570704 38.68510439 7.5625 35.4375 C6.21982587 35.35118126 4.87275678 35.33043527 3.52734375 35.33984375 C2.79894287 35.34234131 2.07054199 35.34483887 1.32006836 35.34741211 C0.3894458 35.35651611 -0.54117676 35.36562012 -1.5 35.375 C-4.449375 35.395625 -7.39875 35.41625 -10.4375 35.4375 C-10.7675 41.3775 -11.0975 47.3175 -11.4375 53.4375 C-14.4075 53.4375 -17.3775 53.4375 -20.4375 53.4375 C-20.4375 38.9175 -20.4375 24.3975 -20.4375 9.4375 C-2.59507576 -0.59886364 -2.59507576 -0.59886364 0 0 Z " fill="#9ED6D8" transform="translate(50.4375,51.5625)"/>
<path d="M0 0 C0.99 0 1.98 0 3 0 C4.578125 1.77246094 4.578125 1.77246094 6.25 4.234375 C6.8584375 5.11867187 7.466875 6.00296875 8.09375 6.9140625 C8.7228125 7.84992188 9.351875 8.78578125 10 9.75 C11.24964204 11.57836971 12.49962974 13.40650322 13.75 15.234375 C14.30171875 16.05131836 14.8534375 16.86826172 15.421875 17.70996094 C16.46961311 19.23034824 17.56405855 20.71962745 18.703125 22.17285156 C20 24 20 24 20 26 C16.04 26 12.08 26 8 26 C7.95875 27.44375 7.9175 28.8875 7.875 30.375 C6.8905258 40.29006155 0.58516116 47.05462877 -6.6875 53.3125 C-9 55 -9 55 -11 55 C-11 55.66 -11 56.32 -11 57 C-20.70046471 60.91749536 -32.51083561 62.0138675 -42.5 58.4375 C-47.40258619 56.11392134 -51.15753657 52.77400083 -55 49 C-55.94875 48.175 -56.8975 47.35 -57.875 46.5 C-60.54980511 43.35317046 -61.13657291 41.00316197 -62 37 C-60.5459375 38.299375 -60.5459375 38.299375 -59.0625 39.625 C-51.03832465 46.49356389 -43.93411022 51.36300986 -33.125 51.3125 C-32.44308594 51.32861328 -31.76117188 51.34472656 -31.05859375 51.36132812 C-23.23488587 51.36877928 -17.47961899 48.23652574 -11.796875 43.02734375 C-7.53725525 38.22138147 -5.64898009 32.32755588 -5 26 C-8.96 26 -12.92 26 -17 26 C-15.0515813 22.1031626 -12.74520085 18.74794257 -10.1875 15.25 C-7.30891248 11.2905892 -4.53464716 7.35646661 -2.0625 3.125 C-1.381875 2.09375 -0.70125 1.0625 0 0 Z " fill="#3BB2AF" transform="translate(93,134)"/>
<path d="M0 0 C0.66 0 1.32 0 2 0 C2.33 12.21 2.66 24.42 3 37 C3.33 34.36 3.66 31.72 4 29 C4.33 29 4.66 29 5 29 C5.33 19.43 5.66 9.86 6 0 C6.33 0 6.66 0 7 0 C7 13.53 7 27.06 7 41 C9.97 41 12.94 41 16 41 C15.98839844 39.71222656 15.97679688 38.42445312 15.96484375 37.09765625 C15.9554673 35.41927228 15.94636695 33.74088674 15.9375 32.0625 C15.92912109 31.21236328 15.92074219 30.36222656 15.91210938 29.48632812 C15.90727539 28.27299805 15.90727539 28.27299805 15.90234375 27.03515625 C15.89448853 25.91185913 15.89448853 25.91185913 15.88647461 24.76586914 C16 23 16 23 17 22 C19.99018161 21.87332236 22.94694108 21.81479162 25.9375 21.8125 C26.77474609 21.80025391 27.61199219 21.78800781 28.47460938 21.77539062 C29.67633789 21.77249023 29.67633789 21.77249023 30.90234375 21.76953125 C31.63960693 21.76542236 32.37687012 21.76131348 33.13647461 21.75708008 C35 22 35 22 37 24 C37.14517744 26.9093558 37.18630796 29.719946 37.125 32.625 C37.11597656 33.42679688 37.10695312 34.22859375 37.09765625 35.0546875 C37.07406223 37.03658523 37.03819065 39.01832981 37 41 C39.64 41 42.28 41 45 41 C45 41.33 45 41.66 45 42 C41.92382812 42.29296875 41.92382812 42.29296875 38.84765625 42.5859375 C37.93306641 42.79089844 37.93306641 42.79089844 37 43 C36.505 43.99 36.505 43.99 36 45 C32.04 45 28.08 45 24 45 C24.33 44.34 24.66 43.68 25 43 C24.34 43 23.68 43 23 43 C22.67 43.66 22.34 44.32 22 45 C19.625 45.125 19.625 45.125 17 45 C16.34 44.34 15.68 43.68 15 43 C12.41645782 42.83312552 12.41645782 42.83312552 10 43 C9.67 43.66 9.34 44.32 9 45 C53.55 45.495 53.55 45.495 99 46 C99 46.33 99 46.66 99 47 C65.34 47 31.68 47 -3 47 C-3.33 45.35 -3.66 43.7 -4 42 C-1.525 41.505 -1.525 41.505 1 41 C0.67 27.47 0.34 13.94 0 0 Z " fill="#485C6C" transform="translate(23,64)"/>
<path d="M0 0 C2.31 0 4.62 0 7 0 C7 0.66 7 1.32 7 2 C5.35 2.33 3.7 2.66 2 3 C1.67 15.21 1.34 27.42 1 40 C5.455 39.505 5.455 39.505 10 39 C10.33 37.68 10.66 36.36 11 35 C9.68 35 8.36 35 7 35 C5.61773984 32.23547967 5.90474613 29.9538637 5.9375 26.875 C5.94652344 25.77929688 5.95554687 24.68359375 5.96484375 23.5546875 C5.97644531 22.71164063 5.98804687 21.86859375 6 21 C7.98 21 9.96 21 12 21 C12 19.68 12 18.36 12 17 C13.98 17 15.96 17 18 17 C18 19.64 18 22.28 18 25 C24.27 25 30.54 25 37 25 C37 22.36 37 19.72 37 17 C38.9375 16.4375 38.9375 16.4375 41 16 C42 17 42 17 42.11352539 19.13305664 C42.10828857 20.04949951 42.10305176 20.96594238 42.09765625 21.91015625 C42.09443359 22.89951172 42.09121094 23.88886719 42.08789062 24.90820312 C42.07532227 26.46958008 42.07532227 26.46958008 42.0625 28.0625 C42.05798828 29.10728516 42.05347656 30.15207031 42.04882812 31.22851562 C42.03699913 33.8190666 42.02051689 36.40950559 42 39 C44.97 39.495 44.97 39.495 48 40 C48 40.33 48 40.66 48 41 C32.16 41 16.32 41 0 41 C0 27.47 0 13.94 0 0 Z " fill="#F0FCFB" transform="translate(74,64)"/>
<path d="M0 0 C0.99 0.33 1.98 0.66 3 1 C3.99 1 4.98 1 6 1 C8.33564933 1.31669821 10.6693782 1.64820803 13 2 C13 2.66 13 3.32 13 4 C14.32 4 15.64 4 17 4 C17.33 6.64 17.66 9.28 18 12 C18.31130859 11.04287109 18.31130859 11.04287109 18.62890625 10.06640625 C19.58042874 7.51441497 20.50622576 5.2815572 22 3 C25.75 1.9375 25.75 1.9375 29 2 C32 5.625 32 5.625 32 9 C33.32 8.67 34.64 8.34 36 8 C36.1875 10.375 36.1875 10.375 36 13 C35.01 13.66 34.02 14.32 33 15 C33 16.32 33 17.64 33 19 C33 20.32 33 21.64 33 23 C29.69711398 25.20192402 29.11120831 25.1982542 25.359375 24.87109375 C24.45316406 24.80599609 23.54695313 24.74089844 22.61328125 24.67382812 C20.7196191 24.51752995 18.82636853 24.35615382 16.93359375 24.18945312 C11.08722339 23.78012451 7.05910266 23.86458861 2 27 C0.95932979 28.9977847 0.95932979 28.9977847 1.0625 31.1875 C1.041875 32.445625 1.02125 33.70375 1 35 C0.67 35 0.34 35 0 35 C0 23.45 0 11.9 0 0 Z " fill="#9CDBDB" transform="translate(31,61)"/>
<path d="M0 0 C2.39529268 2.13634212 3.75936571 3.77495272 4.38671875 6.96875 C4.5 9.0625 4.5 9.0625 4 13 C3.00226563 13.76376953 3.00226563 13.76376953 1.984375 14.54296875 C-1.29684674 18.60574134 -0.41639861 23.20684215 -0.25 28.25 C-0.22292969 29.796875 -0.22292969 29.796875 -0.1953125 31.375 C-0.14822712 33.91761064 -0.0824805 36.45833162 0 39 C-2.97 39.495 -2.97 39.495 -6 40 C-6.01458252 39.2886792 -6.02916504 38.5773584 -6.04418945 37.84448242 C-6.11861006 34.62493668 -6.21529 31.40643482 -6.3125 28.1875 C-6.33505859 27.06794922 -6.35761719 25.94839844 -6.38085938 24.79492188 C-6.41630859 23.72177734 -6.45175781 22.64863281 -6.48828125 21.54296875 C-6.51446533 20.55321045 -6.54064941 19.56345215 -6.56762695 18.54370117 C-7.06994996 15.5884762 -7.88129068 14.98796343 -10 13 C-10.38678897 8.20381673 -10.46296389 4.27777938 -8 0 C-4.60398243 -1.13200586 -3.35097244 -1.14423449 0 0 Z " fill="#A5DBDA" transform="translate(116,35)"/>
<path d="M0 0 C1.32 0.33 2.64 0.66 4 1 C4 7.93 4 14.86 4 22 C2.35 21.67 0.7 21.34 -1 21 C-1 18.69 -1 16.38 -1 14 C-6.94 14 -12.88 14 -19 14 C-19 16.31 -19 18.62 -19 21 C-20.65614657 21.38218767 -22.32457024 21.71395102 -24 22 C-25 21 -25 21 -25.11352539 19.14233398 C-25.10828857 18.35157471 -25.10305176 17.56081543 -25.09765625 16.74609375 C-25.09443359 15.89208984 -25.09121094 15.03808594 -25.08789062 14.15820312 C-25.07951172 13.26037109 -25.07113281 12.36253906 -25.0625 11.4375 C-25.05798828 10.53580078 -25.05347656 9.63410156 -25.04882812 8.70507812 C-25.03700225 6.46998686 -25.0205222 4.23502563 -25 2 C-23.35 1.67 -21.7 1.34 -20 1 C-20 3.64 -20 6.28 -20 9 C-13.73 9 -7.46 9 -1 9 C-1 6.36 -1 3.72 -1 1 C-0.67 0.67 -0.34 0.34 0 0 Z " fill="#AADCDA" transform="translate(112,80)"/>
<path d="M0 0 C0.969375 0.86625 1.93875 1.7325 2.9375 2.625 C10.88809493 9.43058025 18.02362087 14.39322534 28.75 14.3125 C29.80864258 14.31056641 29.80864258 14.31056641 30.88867188 14.30859375 C36.50464696 14.20545371 40.87077118 13.19824092 46 11 C46 11.66 46 12.32 46 13 C45.01 13 44.02 13 43 13 C43 13.66 43 14.32 43 15 C39.7 15.99 36.4 16.98 33 18 C33 18.99 33 19.98 33 21 C36.96 20.34 40.92 19.68 45 19 C45 18.01 45 17.02 45 16 C48.3 16 51.6 16 55 16 C53.02 16.99 53.02 16.99 51 18 C51 18.66 51 19.32 51 20 C41.29953529 23.91749536 29.48916439 25.0138675 19.5 21.4375 C14.59741381 19.11392134 10.84246343 15.77400083 7 12 C6.05125 11.175 5.1025 10.35 4.125 9.5 C1.45019489 6.35317046 0.86342709 4.00316197 0 0 Z " fill="#4DB4B0" transform="translate(31,171)"/>
<path d="M0 0 C0.66 0 1.32 0 2 0 C2 3.3 2 6.6 2 10 C2.66 10 3.32 10 4 10 C4 6.7 4 3.4 4 0 C4.99 0 5.98 0 7 0 C7 3.3 7 6.6 7 10 C7.66 10 8.32 10 9 10 C9 6.7 9 3.4 9 0 C9.99 0 10.98 0 12 0 C12 4.62 12 9.24 12 14 C10.02 14.99 10.02 14.99 8 16 C8.0721875 16.88300781 8.144375 17.76601563 8.21875 18.67578125 C8.79578511 26.13716579 9.13744335 33.51697331 9 41 C7.02 41 5.04 41 3 41 C3.01571045 40.31897217 3.0314209 39.63794434 3.04760742 38.9362793 C3.10993222 35.85343719 3.14898258 32.77072756 3.1875 29.6875 C3.21263672 28.61564453 3.23777344 27.54378906 3.26367188 26.43945312 C3.27817383 24.89741211 3.27817383 24.89741211 3.29296875 23.32421875 C3.3086792 22.37635498 3.32438965 21.42849121 3.34057617 20.4519043 C2.93471117 17.5299672 2.10043484 16.94727813 0 15 C-0.2172101 12.35003674 -0.28351554 9.94923442 -0.1875 7.3125 C-0.17396484 6.61060547 -0.16042969 5.90871094 -0.14648438 5.18554688 C-0.11120182 3.45670171 -0.05739583 1.72825235 0 0 Z " fill="#A8DBDA" transform="translate(89,34)"/>
<path d="M0 0 C0.33 0 0.66 0 1 0 C1 13.53 1 27.06 1 41 C16.84 41 32.68 41 49 41 C49.495 43.475 49.495 43.475 50 46 C45.29012419 46.02512449 40.58028921 46.04305588 35.87036133 46.05493164 C34.27530231 46.05989369 32.68024768 46.06666548 31.08520508 46.07543945 C20.67239889 46.13119306 10.38122732 45.85379218 0 45 C-0.93425257 42.19724228 -1.09949044 40.6811461 -1.02172852 37.80395508 C-1.00163223 36.96331009 -0.98153595 36.1226651 -0.96083069 35.25654602 C-0.92027809 33.90172371 -0.92027809 33.90172371 -0.87890625 32.51953125 C-0.85529526 31.59154221 -0.83168427 30.66355316 -0.80735779 29.70744324 C-0.73075991 26.74230505 -0.64671871 23.77743058 -0.5625 20.8125 C-0.50927545 18.8027473 -0.45653507 16.79298171 -0.40429688 14.78320312 C-0.27514994 9.85530162 -0.13932693 4.92762377 0 0 Z " fill="#354658" transform="translate(73,64)"/>
<path d="M0 0 C0.804375 -0.00128906 1.60875 -0.00257812 2.4375 -0.00390625 C3.283125 -0.00003906 4.12875 0.00382812 5 0.0078125 C6.2684375 0.00201172 6.2684375 0.00201172 7.5625 -0.00390625 C8.366875 -0.00261719 9.17125 -0.00132813 10 0 C10.7425 0.00112793 11.485 0.00225586 12.25 0.00341797 C14 0.1328125 14 0.1328125 15 1.1328125 C15.08651611 2.54851373 15.10704904 3.9684075 15.09765625 5.38671875 C15.09443359 6.24072266 15.09121094 7.09472656 15.08789062 7.97460938 C15.07951172 8.87244141 15.07113281 9.77027344 15.0625 10.6953125 C15.05798828 11.59701172 15.05347656 12.49871094 15.04882812 13.42773438 C15.03700225 15.66282564 15.0205222 17.89778687 15 20.1328125 C13.68 20.1328125 12.36 20.1328125 11 20.1328125 C10.67 15.5128125 10.34 10.8928125 10 6.1328125 C6.7 6.1328125 3.4 6.1328125 0 6.1328125 C0 11.0828125 0 16.0328125 0 21.1328125 C-1.65 20.8028125 -3.3 20.4728125 -5 20.1328125 C-5.02888514 16.98699827 -5.04675923 13.84121781 -5.0625 10.6953125 C-5.07087891 9.79748047 -5.07925781 8.89964844 -5.08789062 7.97460938 C-5.09111328 7.12060547 -5.09433594 6.26660156 -5.09765625 5.38671875 C-5.10551147 4.20057983 -5.10551147 4.20057983 -5.11352539 2.99047852 C-4.89918292 -0.51690185 -3.04503548 0.0046257 0 0 Z " fill="#1D3C50" transform="translate(44,85.8671875)"/>
<path d="M0 0 C-0.99 0.495 -0.99 0.495 -2 1 C-2.33 16.51 -2.66 32.02 -3 48 C-3.33 48 -3.66 48 -4 48 C-4.33 46.35 -4.66 44.7 -5 43 C-5.99 43.495 -5.99 43.495 -7 44 C-7 31.46 -7 18.92 -7 6 C-9.31 6.33 -11.62 6.66 -14 7 C-13.75 4.625 -13.75 4.625 -13 2 C-9.18796909 -0.8237266 -4.42336233 -1.47445411 0 0 Z " fill="#20384B" transform="translate(32,58)"/>
<path d="M0 0 C0.33 0 0.66 0 1 0 C1.33 8.91 1.66 17.82 2 27 C2.66 26.34 3.32 25.68 4 25 C12.85056629 21.99712929 21.84214172 23.26895198 31 24 C30.67 24.99 30.34 25.98 30 27 C29.34 26.67 28.68 26.34 28 26 C26.62451844 25.91691362 25.24514204 25.89263984 23.8671875 25.90234375 C22.77833252 25.90609009 22.77833252 25.90609009 21.66748047 25.90991211 C20.74596191 25.91901611 19.82444336 25.92812012 18.875 25.9375 C14.481875 25.9684375 14.481875 25.9684375 10 26 C9.67 31.94 9.34 37.88 9 44 C6.03 44 3.06 44 0 44 C0 29.48 0 14.96 0 0 Z " fill="#9BCBD4" transform="translate(30,61)"/>
<path d="M0 0 C0.99 0.33 1.98 0.66 3 1 C2.625 3.9375 2.625 3.9375 2 7 C1.01 7.495 1.01 7.495 0 8 C-0.33 8.99 -0.66 9.98 -1 11 C-5.455 11.495 -5.455 11.495 -10 12 C-10.33 12.99 -10.66 13.98 -11 15 C-14.67566856 16.61729417 -19.07239675 16.06546005 -23 16 C-23 15.01 -23 14.02 -23 13 C-21.70990357 12.49596232 -20.41786211 11.99690074 -19.125 11.5 C-18.40570313 11.2215625 -17.68640625 10.943125 -16.9453125 10.65625 C-15 10 -15 10 -13 10 C-13 9.34 -13 8.68 -13 8 C-12.37351562 7.91363281 -11.74703125 7.82726562 -11.1015625 7.73828125 C-8.63331058 7.31392879 -6.35568722 6.85582765 -4 6 C-2.46863044 3.55103367 -2.46863044 3.55103367 -2 1 C-1.34 0.67 -0.68 0.34 0 0 Z " fill="#2BB4B0" transform="translate(87,176)"/>
<path d="M0 0 C3.3 0 6.6 0 10 0 C10 4.29 10 8.58 10 13 C6.7 13 3.4 13 0 13 C0 8.71 0 4.42 0 0 Z " fill="#9BCDD5" transform="translate(44,92)"/>
<path d="M0 0 C3.3 0 6.6 0 10 0 C8.02 0.99 8.02 0.99 6 2 C6 2.66 6 3.32 6 4 C-0.1008072 6.46378752 -5.85097506 7.32152439 -12.375 7.375 C-13.06464844 7.38853516 -13.75429688 7.40207031 -14.46484375 7.41601562 C-18.59111122 7.37967863 -21.00466097 6.90317475 -24 4 C-23.01 4 -22.02 4 -21 4 C-20.67 3.01 -20.34 2.02 -20 1 C-16.7 1 -13.4 1 -10 1 C-10.99 1.495 -10.99 1.495 -12 2 C-12 2.99 -12 3.98 -12 5 C-8.04 4.34 -4.08 3.68 0 3 C0 2.01 0 1.02 0 0 Z " fill="#50B4B1" transform="translate(76,187)"/>
<path d="M0 0 C0.33 0 0.66 0 1 0 C1 5.61 1 11.22 1 17 C3.64 17 6.28 17 9 17 C9 17.33 9 17.66 9 18 C5.92382812 18.29296875 5.92382812 18.29296875 2.84765625 18.5859375 C2.23792969 18.72257812 1.62820312 18.85921875 1 19 C0.67 19.66 0.34 20.32 0 21 C-3.96 21 -7.92 21 -12 21 C-11.67 20.34 -11.34 19.68 -11 19 C-11.66 19 -12.32 19 -13 19 C-13.33 19.66 -13.66 20.32 -14 21 C-16.375 21.125 -16.375 21.125 -19 21 C-19.66 20.34 -20.32 19.68 -21 19 C-23.65537372 18.43479997 -26.29144713 18.26211802 -29 18 C-29 17.67 -29 17.34 -29 17 C-27.54176788 16.9729957 -26.08339325 16.95360213 -24.625 16.9375 C-23.81289063 16.92589844 -23.00078125 16.91429688 -22.1640625 16.90234375 C-20 17 -20 17 -18 18 C-17.67 17.34 -17.34 16.68 -17 16 C-16.67 16.66 -16.34 17.32 -16 18 C-15.67 17.67 -15.34 17.34 -15 17 C-13.31391034 16.92794489 -11.62499341 16.91613932 -9.9375 16.9375 C-9.01839844 16.94652344 -8.09929688 16.95554687 -7.15234375 16.96484375 C-6.44207031 16.97644531 -5.73179688 16.98804687 -5 17 C-5 14.03 -5 11.06 -5 8 C-4.67 8 -4.34 8 -4 8 C-3.77213542 10.01822917 -3.54427083 12.03645833 -3.31640625 14.0546875 C-3.08707039 16.07404316 -3.08707039 16.07404316 -2 18 C-1.34 18 -0.68 18 0 18 C0 12.06 0 6.12 0 0 Z " fill="#325366" transform="translate(59,88)"/>
<path d="M0 0 C2.31 0 4.62 0 7 0 C7 0.66 7 1.32 7 2 C5.35 2.33 3.7 2.66 2 3 C1.67 15.21 1.34 27.42 1 40 C16.51 40 32.02 40 48 40 C48 40.33 48 40.66 48 41 C32.16 41 16.32 41 0 41 C0 27.47 0 13.94 0 0 Z " fill="#DAE6F0" transform="translate(74,64)"/>
<path d="M0 0 C2.97 1.32 5.94 2.64 9 4 C8.34 4.66 7.68 5.32 7 6 C6.34 5.67 5.68 5.34 5 5 C5.33 6.98 5.66 8.96 6 11 C5.34 11 4.68 11 4 11 C4 24.53 4 38.06 4 52 C3.67 52 3.34 52 3 52 C3 37.15 3 22.3 3 7 C0.03 6.505 0.03 6.505 -3 6 C-3.33 5.34 -3.66 4.68 -4 4 C-2.35 3.67 -0.7 3.34 1 3 C0.67 2.01 0.34 1.02 0 0 Z " fill="#294E60" transform="translate(65,53)"/>
<path d="M0 0 C3.02203748 3.32319242 3.37581809 5.56841757 3.36328125 10.0078125 C3.36263672 11.15894531 3.36199219 12.31007813 3.36132812 13.49609375 C3.34521484 14.69363281 3.32910156 15.89117187 3.3125 17.125 C3.31572266 18.33027344 3.31894531 19.53554687 3.32226562 20.77734375 C3.2669837 29.7330163 3.2669837 29.7330163 1 32 C0 31 0 31 -0.11352539 28.04077148 C-0.10828857 26.74727783 -0.10305176 25.45378418 -0.09765625 24.12109375 C-0.0962413 23.4344313 -0.09482635 22.74776886 -0.09336853 22.04029846 C-0.08775479 19.83932199 -0.07520007 17.63844591 -0.0625 15.4375 C-0.05748676 13.94856917 -0.05292355 12.45963676 -0.04882812 10.97070312 C-0.03778093 7.31376925 -0.02050713 3.65689442 0 0 Z " fill="#1D3A51" transform="translate(69,68)"/>
<path d="M0 0 C0.33 0.66 0.66 1.32 1 2 C2.32 2 3.64 2 5 2 C5 7.61 5 13.22 5 19 C3.35 18.67 1.7 18.34 0 18 C0 12.06 0 6.12 0 0 Z " fill="#1C3A4B" transform="translate(39,88)"/>
<path d="M0 0 C2.64 0 5.28 0 8 0 C8 3.3 8 6.6 8 10 C5.36 10 2.72 10 0 10 C0 6.7 0 3.4 0 0 Z " fill="#38B9B3" transform="translate(37,66)"/>
<path d="M0 0 C2.64 0 5.28 0 8 0 C8 3.3 8 6.6 8 10 C5.36 10 2.72 10 0 10 C0 6.7 0 3.4 0 0 Z " fill="#38B7B3" transform="translate(53,66)"/>
<path d="M0 0 C0 0.66 0 1.32 0 2 C1.32 2 2.64 2 4 2 C4.28571429 9.42857143 4.28571429 9.42857143 2 13 C1.67 13 1.34 13 1 13 C1 9.7 1 6.4 1 3 C-1.64 3 -4.28 3 -7 3 C-7 6.3 -7 9.6 -7 13 C-7.66 13 -8.32 13 -9 13 C-9.66 10.03 -10.32 7.06 -11 4 C-10.01 3.67 -9.02 3.34 -8 3 C-8 2.34 -8 1.68 -8 1 C-5.29120665 -0.35439668 -2.99066732 -0.06501451 0 0 Z " fill="#8FE0DC" transform="translate(44,63)"/>
<path d="M0 0 C0.99 0.33 1.98 0.66 3 1 C3.99 1 4.98 1 6 1 C6.99 1.33 7.98 1.66 9 2 C7.68 2.33 6.36 2.66 5 3 C5 3.66 5 4.32 5 5 C4.01 5.495 4.01 5.495 3 6 C1.11863514 11.64409459 1.47185178 18.26944418 3 24 C3.66 24 4.32 24 5 24 C5 24.66 5 25.32 5 26 C4.01 26.33 3.02 26.66 2 27 C1.67 29.64 1.34 32.28 1 35 C0.67 35 0.34 35 0 35 C0 23.45 0 11.9 0 0 Z " fill="#A9DBE0" transform="translate(31,61)"/>
<path d="M0 0 C1.61013585 0.73709784 3.21292391 1.49025857 4.8125 2.25 C5.70582031 2.66765625 6.59914063 3.0853125 7.51953125 3.515625 C10.10928331 5.06539789 11.38180834 6.48400766 13 9 C8.17897633 10.60700789 5.4370446 9.17818553 1 7 C0.195625 6.608125 -0.60875 6.21625 -1.4375 5.8125 C-1.953125 5.544375 -2.46875 5.27625 -3 5 C-2.67 4.01 -2.34 3.02 -2 2 C-1.34 2 -0.68 2 0 2 C0 1.34 0 0.68 0 0 Z " fill="#2A3D49" transform="translate(55,48)"/>
<path d="M0 0 C1.65 0 3.3 0 5 0 C5 4.29 5 8.58 5 13 C3.68 13 2.36 13 1 13 C-0.32229189 10.35541621 -0.09677194 8.32238699 -0.0625 5.375 C-0.05347656 4.37210937 -0.04445313 3.36921875 -0.03515625 2.3359375 C-0.02355469 1.56507812 -0.01195313 0.79421875 0 0 Z " fill="#ABDADB" transform="translate(118,85)"/>
<path d="M0 0 C1.65 0 3.3 0 5 0 C5 3.96 5 7.92 5 12 C3.68 12.33 2.36 12.66 1 13 C0 12 0 12 -0.09765625 9.27734375 C-0.08605469 8.17519531 -0.07445313 7.07304688 -0.0625 5.9375 C-0.05347656 4.83277344 -0.04445313 3.72804688 -0.03515625 2.58984375 C-0.02355469 1.73519531 -0.01195313 0.88054687 0 0 Z " fill="#ACD9DA" transform="translate(80,85)"/>
<path d="M0 0 C-0.5 1.9375 -0.5 1.9375 -2 4 C-4.69658452 4.68790422 -7.2017019 4.81946464 -10 5 C-10.33 5.99 -10.66 6.98 -11 8 C-16.28 8 -21.56 8 -27 8 C-27.33 7.34 -27.66 6.68 -28 6 C-26.58847656 5.92652344 -26.58847656 5.92652344 -25.1484375 5.8515625 C-23.28058594 5.73941406 -23.28058594 5.73941406 -21.375 5.625 C-20.14523438 5.55539063 -18.91546875 5.48578125 -17.6484375 5.4140625 C-14.15222324 5.01727587 -11.30938509 4.14020831 -8 3 C-6.68 3 -5.36 3 -4 3 C-4 2.34 -4 1.68 -4 1 C-2 0 -2 0 0 0 Z " fill="#D1F6F6" transform="translate(86,188)"/>
<path d="M0 0 C0.74886475 0.00523682 1.49772949 0.01047363 2.26928711 0.01586914 C3.07817383 0.0190918 3.88706055 0.02231445 4.72045898 0.02563477 C5.5705957 0.03401367 6.42073242 0.04239258 7.29663086 0.05102539 C8.15063477 0.05553711 9.00463867 0.06004883 9.88452148 0.06469727 C12.00108749 0.07652166 14.11761771 0.0944577 16.23413086 0.11352539 C16.23413086 0.44352539 16.23413086 0.77352539 16.23413086 1.11352539 C12.93413086 1.44352539 9.63413086 1.77352539 6.23413086 2.11352539 C6.23413086 2.77352539 6.23413086 3.43352539 6.23413086 4.11352539 C6.89413086 4.11352539 7.55413086 4.11352539 8.23413086 4.11352539 C8.23413086 3.45352539 8.23413086 2.79352539 8.23413086 2.11352539 C10.21413086 2.11352539 12.19413086 2.11352539 14.23413086 2.11352539 C13.24413086 2.60852539 13.24413086 2.60852539 12.23413086 3.11352539 C12.23413086 4.10352539 12.23413086 5.09352539 12.23413086 6.11352539 C10.65118304 6.16790146 9.0676883 6.2064881 7.48413086 6.23852539 C6.60241211 6.26172852 5.72069336 6.28493164 4.81225586 6.30883789 C2.06523539 6.10073028 0.50525583 5.65829958 -1.76586914 4.11352539 C-2.09586914 3.12352539 -2.42586914 2.13352539 -2.76586914 1.11352539 C-1.76586914 0.11352539 -1.76586914 0.11352539 0 0 Z " fill="#315166" transform="translate(41.765869140625,85.886474609375)"/>
<path d="M0 0 C4.67461851 -0.32613618 7.16674383 0.29417212 11 3 C10.67 4.32 10.34 5.64 10 7 C6.44219804 6.39009109 3.3171411 5.4216319 0 4 C0 2.68 0 1.36 0 0 Z " fill="#28374B" transform="translate(70,58)"/>
<path d="M0 0 C3.3 0 6.6 0 10 0 C9.01 0.495 9.01 0.495 8 1 C7.34786708 3.02463255 7.34786708 3.02463255 7 5 C5.54207116 5.05399736 4.08357288 5.09279177 2.625 5.125 C1.81289063 5.14820313 1.00078125 5.17140625 0.1640625 5.1953125 C-2 5 -2 5 -4 3 C-3.01 3 -2.02 3 -1 3 C-0.67 2.01 -0.34 1.02 0 0 Z " fill="#3BB0AC" transform="translate(56,188)"/>
<path d="M0 0 C0.65355469 0.58007812 0.65355469 0.58007812 1.3203125 1.171875 C5.05744652 4.43984501 8.8076016 7.34140589 13 10 C12.01 10.33 11.02 10.66 10 11 C10.33 12.32 10.66 13.64 11 15 C9.88625 13.8553125 9.88625 13.8553125 8.75 12.6875 C6.23459579 10.04006792 6.23459579 10.04006792 3.8125 8.625 C1.11568491 6.20716578 0.78097955 3.44932635 0 0 Z " fill="#69B9B9" transform="translate(31,171)"/>
<path d="M0 0 C-1.24093463 6.57844865 -6.07173969 12.64038511 -11 17 C-11 15.35 -11 13.7 -11 12 C-10.34 12 -9.68 12 -9 12 C-8.34 10.68 -7.68 9.36 -7 8 C-6.34 8 -5.68 8 -5 8 C-5.061875 7.236875 -5.12375 6.47375 -5.1875 5.6875 C-5 3 -5 3 -3.625 1.1875 C-2 0 -2 0 0 0 Z " fill="#DBFAFA" transform="translate(91,136)"/>
<path d="M0 0 C2.02168235 4.0433647 2.35927761 6.32129345 2.625 10.75 C2.69976562 11.92046875 2.77453125 13.0909375 2.8515625 14.296875 C2.90054688 15.18890625 2.94953125 16.0809375 3 17 C3.99 17.33 4.98 17.66 6 18 C4.02 18.66 2.04 19.32 0 20 C0 13.4 0 6.8 0 0 Z " fill="#D3F7F7" transform="translate(116,81)"/>
<path d="M0 0 C0.99 0 1.98 0 3 0 C3 4.62 3 9.24 3 14 C2.01 14.495 2.01 14.495 1 15 C1 13.68 1 12.36 1 11 C0.01 10.67 -0.98 10.34 -2 10 C-1.34 10 -0.68 10 0 10 C0 6.7 0 3.4 0 0 Z " fill="#B8DDDA" transform="translate(98,34)"/>
<path d="M0 0 C0.66 0 1.32 0 2 0 C2 0.66 2 1.32 2 2 C8.66957927 3.64006048 15.15182898 4.51358785 22 5 C22 5.33 22 5.66 22 6 C5.1070615 6.738041 5.1070615 6.738041 -2 2 C-1.34 1.34 -0.68 0.68 0 0 Z " fill="#D2F7F7" transform="translate(46,180)"/>
<path d="M0 0 C0.33 0 0.66 0 1 0 C4.29960531 15.62540366 4.29960531 15.62540366 2 23 C-0.0546875 24.3046875 -0.0546875 24.3046875 -2 25 C-2.99 24.34 -3.98 23.68 -5 23 C-3.02 22.67 -1.04 22.34 1 22 C0.9278125 21.41734375 0.855625 20.8346875 0.78125 20.234375 C0.01528472 13.46834834 -0.10522858 6.80478149 0 0 Z " fill="#E4FAFB" transform="translate(115,52)"/>
<path d="M0 0 C5.28 0 10.56 0 16 0 C16 1.32 16 2.64 16 4 C10.72 3.34 5.44 2.68 0 2 C0 1.34 0 0.68 0 0 Z " fill="#9DDEDC" transform="translate(96,90)"/>
<path d="M0 0 C0 3 0 3 -1 5 C0.32 5.33 1.64 5.66 3 6 C-0.465 7.485 -0.465 7.485 -4 9 C-3.67 8.01 -3.34 7.02 -3 6 C-5.31 6 -7.62 6 -10 6 C-6.87567603 3.47650757 -3.61939504 1.72743854 0 0 Z " fill="#3A4F62" transform="translate(34,52)"/>
<path d="M0 0 C0.66 0 1.32 0 2 0 C2.06058594 0.80824219 2.12117188 1.61648437 2.18359375 2.44921875 C2.26738281 3.51785156 2.35117188 4.58648437 2.4375 5.6875 C2.55931641 7.27111328 2.55931641 7.27111328 2.68359375 8.88671875 C2.96451681 11.65086297 3.40156852 14.28945741 4 17 C2.68 16.34 1.36 15.68 0 15 C0 10.05 0 5.1 0 0 Z " fill="#AED4D5" transform="translate(89,34)"/>
<path d="M0 0 C1.134375 0.020625 2.26875 0.04125 3.4375 0.0625 C2.375 2.5 2.375 2.5 0.4375 5.0625 C-3.25 5.875 -3.25 5.875 -6.5625 6.0625 C-4.25951087 0.07472826 -4.25951087 0.07472826 0 0 Z " fill="#213A4A" transform="translate(39.5625,50.9375)"/>
<path d="M0 0 C2.97 0 5.94 0 9 0 C9.66 1.98 10.32 3.96 11 6 C10.484375 5.505 9.96875 5.01 9.4375 4.5 C6.19319983 2.50350759 3.73782666 2.78435615 0 3 C-0.33 4.65 -0.66 6.3 -1 8 C-1.625 6.25 -1.625 6.25 -2 4 C-1.34 2.68 -0.68 1.36 0 0 Z " fill="#DFF7F5" transform="translate(108,32)"/>
<path d="M0 0 C0.33 0.99 0.66 1.98 1 3 C-1.64 3 -4.28 3 -7 3 C-7 6.3 -7 9.6 -7 13 C-9 11 -9 11 -9.25 7.5625 C-9 4 -9 4 -7 1 C-4.59258404 0.33796061 -2.49346035 0 0 0 Z " fill="#8DE2DD" transform="translate(60,63)"/>
<path d="M0 0 C1.4540625 0.0309375 1.4540625 0.0309375 2.9375 0.0625 C2.9375 0.7225 2.9375 1.3825 2.9375 2.0625 C1.9475 2.0625 0.9575 2.0625 -0.0625 2.0625 C-0.0625 5.3625 -0.0625 8.6625 -0.0625 12.0625 C-0.7225 12.0625 -1.3825 12.0625 -2.0625 12.0625 C-2.0625 8.7625 -2.0625 5.4625 -2.0625 2.0625 C-2.7225 1.7325 -3.3825 1.4025 -4.0625 1.0625 C-3.0625 0.0625 -3.0625 0.0625 0 0 Z " fill="#DEFCFD" transform="translate(93.0625,31.9375)"/>
<path d="M0 0 C1.81552978 0.61614355 3.6273653 1.24318228 5.4375 1.875 C6.44683594 2.22304688 7.45617188 2.57109375 8.49609375 2.9296875 C11 4 11 4 12 6 C9.39517051 6.94721072 7.69325299 7.30222393 5.109375 6.17578125 C3.37417127 5.17063275 1.68359577 4.0893855 0 3 C0 2.01 0 1.02 0 0 Z " fill="#224452" transform="translate(52,50)"/>
<path d="M0 0 C1.65 0 3.3 0 5 0 C5.33 1.32 5.66 2.64 6 4 C3.69 4.33 1.38 4.66 -1 5 C-0.67 3.35 -0.34 1.7 0 0 Z " fill="#39485C" transform="translate(20,105)"/>
<path d="M0 0 C1.32 0 2.64 0 4 0 C4 2.64 4 5.28 4 8 C3.67 7.34 3.34 6.68 3 6 C1.68 6 0.36 6 -1 6 C-1.042721 4.33388095 -1.04063832 2.66617115 -1 1 C-0.67 0.67 -0.34 0.34 0 0 Z " fill="#A9D8D9" transform="translate(88,81)"/>
<path d="M0 0 C0.33 0 0.66 0 1 0 C2.7578125 5.95703125 2.7578125 5.95703125 3 8 C2.01 9.485 2.01 9.485 1 11 C1.66 11 2.32 11 3 11 C2.67 11.99 2.34 12.98 2 14 C0.5 13 0.5 13 -1 11 C-1.48893443 7.08852457 -1.24575306 3.73725919 0 0 Z " fill="#AEDED9" transform="translate(107,37)"/>
<path d="M0 0 C5.61 0 11.22 0 17 0 C17 0.33 17 0.66 17 1 C14.36 1 11.72 1 9 1 C9 1.66 9 2.32 9 3 C9.99 3.33 10.98 3.66 12 4 C4.5 3.375 4.5 3.375 0 0 Z " fill="#16364C" transform="translate(41,87)"/>
<path d="M0 0 C-0.5 1.875 -0.5 1.875 -2 4 C-6.16184478 5.75090827 -9.65580004 6.35390985 -14 5 C-10.38026598 3.68373308 -7.90432869 3 -4 3 C-4 2.34 -4 1.68 -4 1 C-2 0 -2 0 0 0 Z " fill="#C4F2F1" transform="translate(86,188)"/>
<path d="M0 0 C1 2 1 2 0.44140625 3.9453125 C0.15136719 4.66460937 -0.13867188 5.38390625 -0.4375 6.125 C-0.72496094 6.84945312 -1.01242188 7.57390625 -1.30859375 8.3203125 C-1.53675781 8.87460938 -1.76492187 9.42890625 -2 10 C-3.32 9.67 -4.64 9.34 -6 9 C-4.02 6.03 -2.04 3.06 0 0 Z " fill="#4EB3B0" transform="translate(90,139)"/>
<path d="M0 0 C2.97 0.495 2.97 0.495 6 1 C5.67 1.99 5.34 2.98 5 4 C2.75 4.6875 2.75 4.6875 0 5 C-2.3125 3.5625 -2.3125 3.5625 -4 2 C-2.35 2 -0.7 2 1 2 C0.67 1.34 0.34 0.68 0 0 Z " fill="#4DBBB9" transform="translate(50,187)"/>
<path d="M0 0 C1.98 0 3.96 0 6 0 C6 2.64 6 5.28 6 8 C4.02 8 2.04 8 0 8 C0 7.67 0 7.34 0 7 C1.65 7 3.3 7 5 7 C4.67 5.68 4.34 4.36 4 3 C2.68 2.67 1.36 2.34 0 2 C0 1.34 0 0.68 0 0 Z " fill="#2BAFA6" transform="translate(38,67)"/>
<path d="M0 0 C0.33 0 0.66 0 1 0 C1.25 7.625 1.25 7.625 -1 11 C-1.66 11 -2.32 11 -3 11 C-3 9.68 -3 8.36 -3 7 C-2.34 7 -1.68 7 -1 7 C-0.67 4.69 -0.34 2.38 0 0 Z " fill="#BCE1DE" transform="translate(119,40)"/>
<path d="M0 0 C0.33 0 0.66 0 1 0 C1.3125 2.75 1.3125 2.75 1 6 C-1.5 8.375 -1.5 8.375 -4 10 C-4 5.75354935 -2.18249194 3.61475228 0 0 Z " fill="#D1F4F5" transform="translate(99,170)"/>
<path d="M0 0 C0.66 0 1.32 0 2 0 C2 2.97 2 5.94 2 9 C0.68 9.33 -0.64 9.66 -2 10 C-1.34 6.7 -0.68 3.4 0 0 Z " fill="#3CABA2" transform="translate(89,160)"/>
<path d="M0 0 C0.99 0 1.98 0 3 0 C3.66 1.32 4.32 2.64 5 4 C4.01 4 3.02 4 2 4 C1.34 4.66 0.68 5.32 0 6 C-0.66 5.67 -1.32 5.34 -2 5 C-1.34 3.35 -0.68 1.7 0 0 Z " fill="#56B2AF" transform="translate(93,134)"/>
<path d="M0 0 C0.45375 0.66 0.9075 1.32 1.375 2 C1.91125 2.66 2.4475 3.32 3 4 C3.66 4 4.32 4 5 4 C5 5.32 5 6.64 5 8 C3.35 7.67 1.7 7.34 0 7 C0 4.69 0 2.38 0 0 Z " fill="#B2D6D5" transform="translate(111,94)"/>
<path d="M0 0 C3.3 0 6.6 0 10 0 C6 3 6 3 3.3125 2.8125 C1 2 1 2 0 0 Z " fill="#41ABAB" transform="translate(76,187)"/>
<path d="M0 0 C0.33 0.66 0.66 1.32 1 2 C0.22265625 3.7265625 0.22265625 3.7265625 -0.9375 5.625 C-1.618125 6.73875 -2.29875 7.8525 -3 9 C-3.33 9 -3.66 9 -4 9 C-3.6875 5.625 -3.6875 5.625 -3 2 C-2.01 1.34 -1.02 0.68 0 0 Z " fill="#D5FBF9" transform="translate(86,167)"/>
<path d="M0 0 C-0.33 0.99 -0.66 1.98 -1 3 C-3.64 3.33 -6.28 3.66 -9 4 C-9 3.34 -9 2.68 -9 2 C-2.25 0 -2.25 0 0 0 Z " fill="#38B2B5" transform="translate(77,188)"/>
<path d="M0 0 C1 2 1 2 0.4375 4 C-1.57302108 6.79724672 -3.74418077 7.15065585 -7 8 C-5.625 6 -5.625 6 -4 4 C-3.34 4 -2.68 4 -2 4 C-1.34 2.68 -0.68 1.36 0 0 Z " fill="#CCF2F2" transform="translate(93,180)"/>
<path d="M0 0 C0.33 0.99 0.66 1.98 1 3 C0.01 3.33 -0.98 3.66 -2 4 C-2 4.66 -2 5.32 -2 6 C-3.32 6 -4.64 6 -6 6 C-4.75453595 2.26360784 -3.36595047 1.81243487 0 0 Z " fill="#42A7A5" transform="translate(83,177)"/>
<path d="M0 0 C-1 3 -1 3 -3 5 C-3 4.01 -3 3.02 -3 2 C-4.98 2 -6.96 2 -9 2 C-5.5647952 -0.29013653 -4.014669 -0.17842973 0 0 Z " fill="#2B3F52" transform="translate(29,58)"/>
<path d="M0 0 C0.33 0.66 0.66 1.32 1 2 C-1.95664519 3.4783226 -4.74229737 3.06032783 -8 3 C-5.53387212 -0.1151089 -3.89156016 -0.31553191 0 0 Z " fill="#515B69" transform="translate(51,45)"/>
<path d="M0 0 C0.66 0 1.32 0 2 0 C2 0.66 2 1.32 2 2 C3.32 2.33 4.64 2.66 6 3 C6 4.65 6 6.3 6 8 C1.125 3.375 1.125 3.375 0 0 Z " fill="#D4F8F7" transform="translate(107,150)"/>
<path d="M0 0 C0.33 0.66 0.66 1.32 1 2 C1.99 2 2.98 2 4 2 C4 2.99 4 3.98 4 5 C2.35 5 0.7 5 -1 5 C-0.67 3.35 -0.34 1.7 0 0 Z " fill="#2F3C48" transform="translate(19,60)"/>
<path d="M0 0 C4.455 1.98 4.455 1.98 9 4 C8.34 4.66 7.68 5.32 7 6 C3.535 4.02 3.535 4.02 0 2 C0 1.34 0 0.68 0 0 Z " fill="#374456" transform="translate(65,53)"/>
<path d="M0 0 C0.33 0.66 0.66 1.32 1 2 C-0.32 2.33 -1.64 2.66 -3 3 C-3 2.34 -3 1.68 -3 1 C-4.65 1.33 -6.3 1.66 -8 2 C-8 1.34 -8 0.68 -8 0 C-4.69693408 -1.10102197 -3.28414305 -0.95067299 0 0 Z " fill="#ACD9D5" transform="translate(116,35)"/>
<path d="M0 0 C1.32 0 2.64 0 4 0 C5.75 2 5.75 2 7 4 C4.625 4.625 4.625 4.625 2 5 C1.34 4.34 0.68 3.68 0 3 C0.66 2.67 1.32 2.34 2 2 C1.34 1.34 0.68 0.68 0 0 Z " fill="#1C3647" transform="translate(61,53)"/>
</svg>
